PathFileType	4	(X/Y/Z)	c:/Users/goper/Files/vsCode/490R/osim_files/C10/C10_Static.trc
DataRate	CameraRate	NumFrames	NumMarkers	Units                	OrigDataRate	OrigDataStartFrame	OrigNumFrames
250.00	250.00	4	36	mm	250.0	986	1971
                Frame#	Time	LPSIS			LASIS			LTH1			LTH2			LTH3			LTH4			LLFE			LMFE			LSH1			LSH2			LSH3			LSH4			LLMAL			LMMAL			LCAL			LMTP5			LTOE			LMTP1			RPSIS			RASIS			RTH1			RTH2			RTH3			RTH4			RLFE			RMFE			RSH1			RSH2			RSH3			RSH4			RLMAL			RMMAL			RCAL			RMTP1			RTOE			RMTP5		
		X1	Y1	Z1	X2	Y2	Z2	X3	Y3	Z3	X4	Y4	Z4	X5	Y5	Z5	X6	Y6	Z6	X7	Y7	Z7	X8	Y8	Z8	X9	Y9	Z9	X10	Y10	Z10	X11	Y11	Z11	X12	Y12	Z12	X13	Y13	Z13	X14	Y14	Z14	X15	Y15	Z15	X16	Y16	Z16	X17	Y17	Z17	X18	Y18	Z18	X19	Y19	Z19	X20	Y20	Z20	X21	Y21	Z21	X22	Y22	Z22	X23	Y23	Z23	X24	Y24	Z24	X25	Y25	Z25	X26	Y26	Z26	X27	Y27	Z27	X28	Y28	Z28	X29	Y29	Z29	X30	Y30	Z30	X31	Y31	Z31	X32	Y32	Z32	X33	Y33	Z33	X34	Y34	Z34	X35	Y35	Z35	X36	Y36	Z36

986	3.94000	-322.44589	1027.13892	445.08627	-182.74847	1000.36078	291.91876	-271.47284	795.69604	256.56610	-266.77557	749.66669	246.75571	-210.79353	795.83484	254.32381	-215.11461	749.00867	250.41197	-245.86066	492.90314	273.63705	-230.06953	466.67770	387.66867	-308.76562	418.24414	259.22012	-309.96262	371.03241	249.46912	-247.38615	412.16119	261.71307	-256.14423	368.07999	252.58662	-284.47568	92.97717	239.79037	-272.60614	89.92131	319.70206	-347.78500	38.68198	279.00497	-177.15787	28.23149	206.32864	-121.79978	47.00464	266.32129	-156.18883	26.28145	315.72806	-309.56900	1029.09766	524.98199	-139.63791	998.26550	632.03833	-240.02849	757.12677	690.44794	-232.93909	713.19183	693.95892	-178.80171	760.56207	691.98956	-178.94678	716.52838	696.17065	-216.78336	485.96799	667.37567	-205.87303	463.39301	556.86694	-294.77774	404.90344	690.82562	-291.38632	361.93478	699.81409	-232.01692	400.43741	688.91943	-239.07741	360.08228	697.86670	-274.27258	91.25954	699.40417	-255.18874	89.45103	619.68372	-329.54007	40.65117	664.26556	-134.94583	33.49716	637.12634	-104.51934	46.01221	678.73816	-156.27626	30.73528	740.49194
987	3.94400	-322.49820	1027.16760	445.02780	-182.76726	1000.38348	291.88663	-271.52875	795.72394	256.53665	-266.80365	749.67444	246.73427	-210.84781	795.85217	254.30675	-215.14691	749.02350	250.39766	-245.86490	492.92261	273.61819	-230.09290	466.66220	387.66129	-308.91296	418.18185	259.31360	-309.96506	371.07828	249.44269	-247.37488	412.18628	261.69766	-256.13574	368.08670	252.57486	-284.48093	92.98955	239.79408	-272.63147	89.92212	319.70532	-347.78870	38.71193	279.02261	-177.12181	28.25174	206.31909	-121.80001	47.01645	266.34186	-156.34036	26.24514	315.68207	-309.60358	1029.11194	524.92188	-139.68340	998.26624	632.01801	-240.11165	757.12164	690.40283	-233.01886	713.18396	693.90118	-178.87041	760.54419	691.96405	-179.00725	716.52692	696.15076	-216.79890	485.97345	667.37616	-205.87938	463.41605	556.82904	-294.78409	404.92288	690.79626	-291.35974	361.84552	699.84912	-232.05191	400.45261	688.87115	-239.12811	360.09036	697.84930	-274.26328	91.26514	699.38452	-255.15280	89.47694	619.65405	-329.53995	40.67037	664.29553	-134.95923	33.50721	637.13208	-104.53833	46.01830	678.73688	-156.30096	30.73553	740.49536
988	3.94800	-322.50897	1027.17090	444.99066	-182.77435	1000.41711	291.87131	-271.56049	795.73669	256.51407	-266.82935	749.68970	246.71082	-210.85359	795.86224	254.28503	-215.16013	749.03668	250.37616	-245.87798	492.93152	273.61789	-230.12015	466.65610	387.65921	-309.65530	417.51584	260.12479	-309.93097	371.08173	249.43658	-247.40062	412.17200	261.71002	-256.15753	368.09189	252.56616	-284.45224	92.98971	239.80197	-272.51471	89.99538	319.66699	-347.78311	38.71592	279.05484	-177.10635	28.26451	206.35242	-121.82552	46.98050	266.36966	-156.28517	26.18761	315.71783	-309.61917	1029.10168	524.91272	-139.74860	998.24304	632.01526	-240.18178	757.09283	690.35895	-233.12035	713.15344	693.87665	-179.00412	760.51416	691.94562	-179.08371	716.51941	696.13202	-216.87000	485.93826	667.37097	-205.90234	463.39404	556.83801	-294.83981	404.91098	690.78027	-291.42230	361.91296	699.77753	-232.08478	400.42166	688.91699	-239.20056	360.05670	697.86493	-274.26654	91.26736	699.41522	-255.13443	89.47189	619.67096	-329.54245	40.65162	664.31140	-134.69113	33.66305	637.22345	-104.56183	45.99619	678.76801	-156.31847	30.72109	740.52173
989	3.95200	-322.49979	1027.17957	444.95367	-182.81015	1000.42316	291.86005	-271.60172	795.74261	256.49106	-266.86676	749.70465	246.67699	-210.89571	795.88641	254.27454	-215.22267	749.05139	250.35289	-245.91023	492.93115	273.59576	-230.13188	466.65594	387.63208	-309.95642	417.45932	260.18707	-309.96863	371.12784	249.43227	-247.42038	412.19574	261.68781	-256.16614	368.07999	252.53984	-284.45743	92.99696	239.80611	-272.64456	89.91112	319.73145	-347.76645	38.69647	279.06952	-177.11472	28.28262	206.35770	-121.83218	46.99186	266.37262	-156.31898	26.18421	315.72040	-309.63986	1029.12415	524.88409	-139.78625	998.22443	631.99255	-240.24370	757.08759	690.33490	-233.18292	713.14313	693.83588	-179.07394	760.49738	691.91541	-179.12477	716.52112	696.10950	-216.90936	485.92798	667.34650	-205.90363	463.42514	556.82764	-294.84662	404.90591	690.77844	-291.42056	361.90491	699.77100	-232.11394	400.41916	688.92212	-239.20453	360.07077	697.86145	-274.26486	91.25285	699.42865	-255.13637	89.50273	619.67108	-329.51935	40.64471	664.32898	-134.97760	33.46477	637.13733	-104.54608	46.00350	678.77789	-156.31018	30.72543	740.51306
